<mxfile host="app.diagrams.net" modified="2023-10-29T20:49:13.850Z" agent="Mozilla/5.0 (Windows NT 10.0; Win64; x64) AppleWebKit/537.36 (KHTML, like Gecko) Chrome/117.0.0.0 Safari/537.36 OPR/103.0.0.0" etag="lkcCGCUlR2tx7GMBvNeL" version="22.0.8" type="github">
  <diagram name="Page-1" id="iLWNj-P0tNqRdTSkAOxK">
    <mxGraphModel dx="4414" dy="313" grid="1" gridSize="10" guides="1" tooltips="1" connect="1" arrows="1" fold="1" page="1" pageScale="1" pageWidth="827" pageHeight="1169" math="0" shadow="0">
      <root>
        <mxCell id="0" />
        <mxCell id="1" parent="0" />
        <mxCell id="r-mGTHfdgJ765PxHvoRZ-308" value="" style="rounded=0;whiteSpace=wrap;html=1;fillColor=none;" vertex="1" parent="1">
          <mxGeometry x="-832" y="1340" width="1192" height="750" as="geometry" />
        </mxCell>
        <mxCell id="r-mGTHfdgJ765PxHvoRZ-294" style="edgeStyle=orthogonalEdgeStyle;rounded=0;orthogonalLoop=1;jettySize=auto;html=1;entryX=0.5;entryY=0;entryDx=0;entryDy=0;fillColor=#dae8fc;strokeColor=#6c8ebf;" edge="1" parent="1" source="r-mGTHfdgJ765PxHvoRZ-291" target="r-mGTHfdgJ765PxHvoRZ-23">
          <mxGeometry relative="1" as="geometry" />
        </mxCell>
        <mxCell id="r-mGTHfdgJ765PxHvoRZ-291" value="" style="verticalLabelPosition=bottom;verticalAlign=top;html=1;shape=mxgraph.basic.rect;fillColor2=none;strokeWidth=1;size=20;indent=5;fillColor=none;" vertex="1" parent="1">
          <mxGeometry x="-507" y="1710" width="310" height="330" as="geometry" />
        </mxCell>
        <mxCell id="r-mGTHfdgJ765PxHvoRZ-72" value="" style="group" vertex="1" connectable="0" parent="1">
          <mxGeometry x="-117" y="1560" width="390" height="480" as="geometry" />
        </mxCell>
        <mxCell id="r-mGTHfdgJ765PxHvoRZ-23" value="" style="rounded=0;whiteSpace=wrap;html=1;dashed=1;fillColor=none;fontColor=#050505;container=0;" vertex="1" parent="r-mGTHfdgJ765PxHvoRZ-72">
          <mxGeometry width="390" height="480" as="geometry" />
        </mxCell>
        <mxCell id="r-mGTHfdgJ765PxHvoRZ-66" value="" style="shape=image;verticalLabelPosition=bottom;labelBackgroundColor=default;verticalAlign=top;aspect=fixed;imageAspect=0;image=https://upload.wikimedia.org/wikipedia/commons/thumb/e/ee/.NET_Core_Logo.svg/2048px-.NET_Core_Logo.svg.png;container=0;" vertex="1" parent="r-mGTHfdgJ765PxHvoRZ-72">
          <mxGeometry x="32" y="420" width="50" height="50" as="geometry" />
        </mxCell>
        <mxCell id="r-mGTHfdgJ765PxHvoRZ-68" value="" style="shape=image;verticalLabelPosition=bottom;labelBackgroundColor=default;verticalAlign=top;aspect=fixed;imageAspect=0;image=https://p7.hiclipart.com/preview/244/430/440/microsoft-sql-server-sql-server-management-studio-database-server-microsoft.jpg;container=0;" vertex="1" parent="r-mGTHfdgJ765PxHvoRZ-72">
          <mxGeometry x="92" y="425" width="60.2" height="45" as="geometry" />
        </mxCell>
        <mxCell id="r-mGTHfdgJ765PxHvoRZ-69" value="" style="shape=image;verticalLabelPosition=bottom;labelBackgroundColor=default;verticalAlign=top;aspect=fixed;imageAspect=0;image=https://files.readme.io/9d09251-microsoft_iis2x.png;container=0;" vertex="1" parent="r-mGTHfdgJ765PxHvoRZ-72">
          <mxGeometry x="162" y="430" width="74.17" height="40" as="geometry" />
        </mxCell>
        <mxCell id="r-mGTHfdgJ765PxHvoRZ-6" value="&lt;font style=&quot;font-size: 7px;&quot;&gt;Pos Auth API&lt;/font&gt;" style="shape=document;whiteSpace=wrap;html=1;boundedLbl=1;container=0;" vertex="1" parent="r-mGTHfdgJ765PxHvoRZ-72">
          <mxGeometry x="22" y="290" width="60" height="30" as="geometry" />
        </mxCell>
        <mxCell id="r-mGTHfdgJ765PxHvoRZ-7" value="&lt;font style=&quot;font-size: 7px;&quot;&gt;Pos Com API&lt;/font&gt;" style="shape=document;whiteSpace=wrap;html=1;boundedLbl=1;container=0;" vertex="1" parent="r-mGTHfdgJ765PxHvoRZ-72">
          <mxGeometry x="92" y="290" width="60" height="30" as="geometry" />
        </mxCell>
        <mxCell id="r-mGTHfdgJ765PxHvoRZ-8" value="&lt;font style=&quot;font-size: 7px;&quot;&gt;Pos DBS API&lt;/font&gt;" style="shape=document;whiteSpace=wrap;html=1;boundedLbl=1;container=0;" vertex="1" parent="r-mGTHfdgJ765PxHvoRZ-72">
          <mxGeometry x="162" y="290" width="60" height="30" as="geometry" />
        </mxCell>
        <mxCell id="r-mGTHfdgJ765PxHvoRZ-9" value="&lt;font style=&quot;font-size: 7px;&quot;&gt;Pos Job API&lt;/font&gt;" style="shape=document;whiteSpace=wrap;html=1;boundedLbl=1;container=0;" vertex="1" parent="r-mGTHfdgJ765PxHvoRZ-72">
          <mxGeometry x="232" y="290" width="60" height="30" as="geometry" />
        </mxCell>
        <mxCell id="r-mGTHfdgJ765PxHvoRZ-11" value="&lt;font style=&quot;font-size: 7px;&quot;&gt;Pos Rapor API&lt;/font&gt;" style="shape=document;whiteSpace=wrap;html=1;boundedLbl=1;container=0;" vertex="1" parent="r-mGTHfdgJ765PxHvoRZ-72">
          <mxGeometry x="302" y="290" width="60" height="30" as="geometry" />
        </mxCell>
        <mxCell id="r-mGTHfdgJ765PxHvoRZ-32" style="edgeStyle=orthogonalEdgeStyle;rounded=0;orthogonalLoop=1;jettySize=auto;html=1;exitX=0.5;exitY=1;exitDx=0;exitDy=0;exitPerimeter=0;" edge="1" parent="r-mGTHfdgJ765PxHvoRZ-72" source="r-mGTHfdgJ765PxHvoRZ-22">
          <mxGeometry relative="1" as="geometry">
            <mxPoint x="192.13043478260875" y="160" as="targetPoint" />
          </mxGeometry>
        </mxCell>
        <mxCell id="r-mGTHfdgJ765PxHvoRZ-22" value="Support Team" style="points=[[0.13,0.225,0],[0.5,0,0],[0.87,0.225,0],[0.885,0.5,0],[0.985,0.99,0],[0.5,1,0],[0.015,0.99,0],[0.115,0.5,0]];verticalLabelPosition=middle;sketch=0;html=1;verticalAlign=middle;aspect=fixed;align=right;pointerEvents=1;shape=mxgraph.cisco19.laptop_video_client;fillColor=#005073;strokeColor=none;labelPosition=left;fontStyle=1;container=0;" vertex="1" parent="r-mGTHfdgJ765PxHvoRZ-72">
          <mxGeometry x="167" y="47.5" width="50" height="42.5" as="geometry" />
        </mxCell>
        <mxCell id="r-mGTHfdgJ765PxHvoRZ-33" value="" style="edgeStyle=orthogonalEdgeStyle;rounded=0;orthogonalLoop=1;jettySize=auto;html=1;" edge="1" parent="r-mGTHfdgJ765PxHvoRZ-72" source="r-mGTHfdgJ765PxHvoRZ-22" target="r-mGTHfdgJ765PxHvoRZ-27">
          <mxGeometry relative="1" as="geometry" />
        </mxCell>
        <mxCell id="r-mGTHfdgJ765PxHvoRZ-39" value="Services" style="verticalLabelPosition=middle;verticalAlign=middle;html=1;shape=mxgraph.basic.rect;fillColor2=none;strokeWidth=1;size=20;indent=5;labelPosition=center;align=center;fontSize=9;container=0;" vertex="1" parent="r-mGTHfdgJ765PxHvoRZ-72">
          <mxGeometry x="22" y="270" width="338" height="10" as="geometry" />
        </mxCell>
        <mxCell id="r-mGTHfdgJ765PxHvoRZ-40" style="edgeStyle=orthogonalEdgeStyle;rounded=0;orthogonalLoop=1;jettySize=auto;html=1;entryX=0.503;entryY=0;entryDx=0;entryDy=0;entryPerimeter=0;" edge="1" parent="r-mGTHfdgJ765PxHvoRZ-72" source="r-mGTHfdgJ765PxHvoRZ-26" target="r-mGTHfdgJ765PxHvoRZ-39">
          <mxGeometry relative="1" as="geometry" />
        </mxCell>
        <mxCell id="r-mGTHfdgJ765PxHvoRZ-41" value="" style="image;sketch=0;aspect=fixed;html=1;points=[];align=center;fontSize=12;image=img/lib/mscae/SQL_Database_generic.svg;container=0;" vertex="1" parent="r-mGTHfdgJ765PxHvoRZ-72">
          <mxGeometry x="40.60000000000002" y="360" width="22.8" height="30" as="geometry" />
        </mxCell>
        <mxCell id="r-mGTHfdgJ765PxHvoRZ-50" style="edgeStyle=orthogonalEdgeStyle;rounded=0;orthogonalLoop=1;jettySize=auto;html=1;" edge="1" parent="r-mGTHfdgJ765PxHvoRZ-72" source="r-mGTHfdgJ765PxHvoRZ-6" target="r-mGTHfdgJ765PxHvoRZ-41">
          <mxGeometry relative="1" as="geometry" />
        </mxCell>
        <mxCell id="r-mGTHfdgJ765PxHvoRZ-44" value="" style="image;sketch=0;aspect=fixed;html=1;points=[];align=center;fontSize=12;image=img/lib/mscae/SQL_Database_generic.svg;container=0;" vertex="1" parent="r-mGTHfdgJ765PxHvoRZ-72">
          <mxGeometry x="110.60000000000002" y="360" width="22.8" height="30" as="geometry" />
        </mxCell>
        <mxCell id="r-mGTHfdgJ765PxHvoRZ-45" value="" style="image;sketch=0;aspect=fixed;html=1;points=[];align=center;fontSize=12;image=img/lib/mscae/SQL_Database_generic.svg;container=0;" vertex="1" parent="r-mGTHfdgJ765PxHvoRZ-72">
          <mxGeometry x="180.60000000000002" y="360" width="22.8" height="30" as="geometry" />
        </mxCell>
        <mxCell id="r-mGTHfdgJ765PxHvoRZ-46" value="" style="image;sketch=0;aspect=fixed;html=1;points=[];align=center;fontSize=12;image=img/lib/mscae/SQL_Database_generic.svg;container=0;" vertex="1" parent="r-mGTHfdgJ765PxHvoRZ-72">
          <mxGeometry x="250.60000000000002" y="360" width="22.8" height="30" as="geometry" />
        </mxCell>
        <mxCell id="r-mGTHfdgJ765PxHvoRZ-47" value="" style="image;sketch=0;aspect=fixed;html=1;points=[];align=center;fontSize=12;image=img/lib/mscae/SQL_Database_generic.svg;container=0;" vertex="1" parent="r-mGTHfdgJ765PxHvoRZ-72">
          <mxGeometry x="320.6" y="360" width="22.8" height="30" as="geometry" />
        </mxCell>
        <mxCell id="r-mGTHfdgJ765PxHvoRZ-51" style="edgeStyle=orthogonalEdgeStyle;rounded=0;orthogonalLoop=1;jettySize=auto;html=1;entryX=0.493;entryY=0.023;entryDx=0;entryDy=0;entryPerimeter=0;" edge="1" parent="r-mGTHfdgJ765PxHvoRZ-72" source="r-mGTHfdgJ765PxHvoRZ-7" target="r-mGTHfdgJ765PxHvoRZ-44">
          <mxGeometry relative="1" as="geometry" />
        </mxCell>
        <mxCell id="r-mGTHfdgJ765PxHvoRZ-52" style="edgeStyle=orthogonalEdgeStyle;rounded=0;orthogonalLoop=1;jettySize=auto;html=1;entryX=0.48;entryY=0.023;entryDx=0;entryDy=0;entryPerimeter=0;" edge="1" parent="r-mGTHfdgJ765PxHvoRZ-72" source="r-mGTHfdgJ765PxHvoRZ-8" target="r-mGTHfdgJ765PxHvoRZ-45">
          <mxGeometry relative="1" as="geometry" />
        </mxCell>
        <mxCell id="r-mGTHfdgJ765PxHvoRZ-53" style="edgeStyle=orthogonalEdgeStyle;rounded=0;orthogonalLoop=1;jettySize=auto;html=1;entryX=0.52;entryY=0.064;entryDx=0;entryDy=0;entryPerimeter=0;" edge="1" parent="r-mGTHfdgJ765PxHvoRZ-72" source="r-mGTHfdgJ765PxHvoRZ-9" target="r-mGTHfdgJ765PxHvoRZ-46">
          <mxGeometry relative="1" as="geometry" />
        </mxCell>
        <mxCell id="r-mGTHfdgJ765PxHvoRZ-54" style="edgeStyle=orthogonalEdgeStyle;rounded=0;orthogonalLoop=1;jettySize=auto;html=1;" edge="1" parent="r-mGTHfdgJ765PxHvoRZ-72" source="r-mGTHfdgJ765PxHvoRZ-11" target="r-mGTHfdgJ765PxHvoRZ-47">
          <mxGeometry relative="1" as="geometry" />
        </mxCell>
        <mxCell id="r-mGTHfdgJ765PxHvoRZ-26" value="UI" style="verticalLabelPosition=middle;verticalAlign=middle;html=1;shape=mxgraph.basic.diag_snip_rect;dx=6;whiteSpace=wrap;movable=1;resizable=1;rotatable=1;deletable=1;editable=1;locked=0;connectable=1;labelPosition=left;align=right;container=0;" vertex="1" parent="r-mGTHfdgJ765PxHvoRZ-72">
          <mxGeometry x="142" y="160" width="100" height="60" as="geometry" />
        </mxCell>
        <mxCell id="r-mGTHfdgJ765PxHvoRZ-27" value="Pos Portal" style="text;html=1;strokeColor=none;fillColor=none;align=center;verticalAlign=middle;whiteSpace=wrap;rounded=0;movable=1;resizable=1;rotatable=1;deletable=1;editable=1;locked=0;connectable=1;container=0;" vertex="1" parent="r-mGTHfdgJ765PxHvoRZ-72">
          <mxGeometry x="162" y="175" width="60" height="30" as="geometry" />
        </mxCell>
        <mxCell id="r-mGTHfdgJ765PxHvoRZ-55" value="E Cozum - Net Esktre" style="text;html=1;strokeColor=none;fillColor=none;align=center;verticalAlign=middle;whiteSpace=wrap;rounded=0;fontStyle=5;fontColor=#050505;container=0;rotation=-90;" vertex="1" parent="r-mGTHfdgJ765PxHvoRZ-72">
          <mxGeometry x="-47" y="53.75" width="139" height="30" as="geometry" />
        </mxCell>
        <mxCell id="r-mGTHfdgJ765PxHvoRZ-73" value="" style="shape=image;verticalLabelPosition=bottom;labelBackgroundColor=default;verticalAlign=top;aspect=fixed;imageAspect=0;image=https://grafik.altin.in/grafik/uyeler/4/4_GRrqd401.png;" vertex="1" parent="1">
          <mxGeometry x="-1320" y="1340" width="322.82" height="290" as="geometry" />
        </mxCell>
        <mxCell id="r-mGTHfdgJ765PxHvoRZ-227" value="&lt;font style=&quot;font-size: 7px;&quot;&gt;Auhorization&lt;/font&gt;" style="shape=document;whiteSpace=wrap;html=1;boundedLbl=1;container=0;" vertex="1" parent="1">
          <mxGeometry x="-487" y="1840" width="60" height="30" as="geometry" />
        </mxCell>
        <mxCell id="r-mGTHfdgJ765PxHvoRZ-228" value="&lt;font style=&quot;font-size: 7px;&quot;&gt;Notification&lt;/font&gt;" style="shape=document;whiteSpace=wrap;html=1;boundedLbl=1;container=0;" vertex="1" parent="1">
          <mxGeometry x="-417" y="1840" width="60" height="30" as="geometry" />
        </mxCell>
        <mxCell id="r-mGTHfdgJ765PxHvoRZ-229" value="&lt;font style=&quot;font-size: 7px;&quot;&gt;Reporting&lt;/font&gt;" style="shape=document;whiteSpace=wrap;html=1;boundedLbl=1;container=0;" vertex="1" parent="1">
          <mxGeometry x="-347" y="1840" width="60" height="30" as="geometry" />
        </mxCell>
        <mxCell id="r-mGTHfdgJ765PxHvoRZ-230" value="&lt;span style=&quot;font-size: 7px;&quot;&gt;ExtOrgAS&lt;/span&gt;" style="shape=document;whiteSpace=wrap;html=1;boundedLbl=1;container=0;" vertex="1" parent="1">
          <mxGeometry x="-277" y="1840" width="60" height="30" as="geometry" />
        </mxCell>
        <mxCell id="r-mGTHfdgJ765PxHvoRZ-233" value="Client" style="points=[[0.13,0.225,0],[0.5,0,0],[0.87,0.225,0],[0.885,0.5,0],[0.985,0.99,0],[0.5,1,0],[0.015,0.99,0],[0.115,0.5,0]];verticalLabelPosition=middle;sketch=0;html=1;verticalAlign=middle;aspect=fixed;align=right;pointerEvents=1;shape=mxgraph.cisco19.laptop_video_client;fillColor=#005073;strokeColor=none;labelPosition=left;fontStyle=1;container=0;" vertex="1" parent="1">
          <mxGeometry x="-383.5" y="1390" width="50" height="42.5" as="geometry" />
        </mxCell>
        <mxCell id="r-mGTHfdgJ765PxHvoRZ-234" value="" style="edgeStyle=orthogonalEdgeStyle;rounded=0;orthogonalLoop=1;jettySize=auto;html=1;" edge="1" parent="1" source="r-mGTHfdgJ765PxHvoRZ-233" target="r-mGTHfdgJ765PxHvoRZ-249">
          <mxGeometry relative="1" as="geometry" />
        </mxCell>
        <mxCell id="r-mGTHfdgJ765PxHvoRZ-235" value="Services" style="verticalLabelPosition=middle;verticalAlign=middle;html=1;shape=mxgraph.basic.rect;fillColor2=none;strokeWidth=1;size=20;indent=5;labelPosition=center;align=center;fontSize=9;container=0;" vertex="1" parent="1">
          <mxGeometry x="-487" y="1820" width="267" height="10" as="geometry" />
        </mxCell>
        <mxCell id="r-mGTHfdgJ765PxHvoRZ-237" value="" style="image;sketch=0;aspect=fixed;html=1;points=[];align=center;fontSize=12;image=img/lib/mscae/SQL_Database_generic.svg;container=0;" vertex="1" parent="1">
          <mxGeometry x="-468.4" y="1910" width="22.8" height="30" as="geometry" />
        </mxCell>
        <mxCell id="r-mGTHfdgJ765PxHvoRZ-238" style="edgeStyle=orthogonalEdgeStyle;rounded=0;orthogonalLoop=1;jettySize=auto;html=1;" edge="1" parent="1" source="r-mGTHfdgJ765PxHvoRZ-227" target="r-mGTHfdgJ765PxHvoRZ-237">
          <mxGeometry relative="1" as="geometry" />
        </mxCell>
        <mxCell id="r-mGTHfdgJ765PxHvoRZ-239" value="" style="image;sketch=0;aspect=fixed;html=1;points=[];align=center;fontSize=12;image=img/lib/mscae/SQL_Database_generic.svg;container=0;" vertex="1" parent="1">
          <mxGeometry x="-398.4" y="1910" width="22.8" height="30" as="geometry" />
        </mxCell>
        <mxCell id="r-mGTHfdgJ765PxHvoRZ-240" value="" style="image;sketch=0;aspect=fixed;html=1;points=[];align=center;fontSize=12;image=img/lib/mscae/SQL_Database_generic.svg;container=0;" vertex="1" parent="1">
          <mxGeometry x="-328.4" y="1910" width="22.8" height="30" as="geometry" />
        </mxCell>
        <mxCell id="r-mGTHfdgJ765PxHvoRZ-241" value="" style="image;sketch=0;aspect=fixed;html=1;points=[];align=center;fontSize=12;image=img/lib/mscae/SQL_Database_generic.svg;container=0;" vertex="1" parent="1">
          <mxGeometry x="-258.4" y="1910" width="22.8" height="30" as="geometry" />
        </mxCell>
        <mxCell id="r-mGTHfdgJ765PxHvoRZ-243" style="edgeStyle=orthogonalEdgeStyle;rounded=0;orthogonalLoop=1;jettySize=auto;html=1;entryX=0.493;entryY=0.023;entryDx=0;entryDy=0;entryPerimeter=0;" edge="1" parent="1" source="r-mGTHfdgJ765PxHvoRZ-228" target="r-mGTHfdgJ765PxHvoRZ-239">
          <mxGeometry relative="1" as="geometry" />
        </mxCell>
        <mxCell id="r-mGTHfdgJ765PxHvoRZ-244" style="edgeStyle=orthogonalEdgeStyle;rounded=0;orthogonalLoop=1;jettySize=auto;html=1;entryX=0.48;entryY=0.023;entryDx=0;entryDy=0;entryPerimeter=0;" edge="1" parent="1" source="r-mGTHfdgJ765PxHvoRZ-229" target="r-mGTHfdgJ765PxHvoRZ-240">
          <mxGeometry relative="1" as="geometry" />
        </mxCell>
        <mxCell id="r-mGTHfdgJ765PxHvoRZ-245" style="edgeStyle=orthogonalEdgeStyle;rounded=0;orthogonalLoop=1;jettySize=auto;html=1;entryX=0.52;entryY=0.064;entryDx=0;entryDy=0;entryPerimeter=0;" edge="1" parent="1" source="r-mGTHfdgJ765PxHvoRZ-230" target="r-mGTHfdgJ765PxHvoRZ-241">
          <mxGeometry relative="1" as="geometry" />
        </mxCell>
        <mxCell id="r-mGTHfdgJ765PxHvoRZ-248" value="UI" style="verticalLabelPosition=middle;verticalAlign=middle;html=1;shape=mxgraph.basic.diag_snip_rect;dx=6;whiteSpace=wrap;movable=1;resizable=1;rotatable=1;deletable=1;editable=1;locked=0;connectable=1;labelPosition=left;align=right;container=0;" vertex="1" parent="1">
          <mxGeometry x="-407" y="1586.25" width="100" height="60" as="geometry" />
        </mxCell>
        <mxCell id="r-mGTHfdgJ765PxHvoRZ-249" value="POS UI" style="text;html=1;strokeColor=none;fillColor=none;align=center;verticalAlign=middle;whiteSpace=wrap;rounded=0;movable=1;resizable=1;rotatable=1;deletable=1;editable=1;locked=0;connectable=1;container=0;" vertex="1" parent="1">
          <mxGeometry x="-388.5" y="1601.25" width="60" height="30" as="geometry" />
        </mxCell>
        <mxCell id="r-mGTHfdgJ765PxHvoRZ-279" value="&lt;font style=&quot;font-size: 7px;&quot;&gt;API Gateway&lt;/font&gt;" style="shape=document;whiteSpace=wrap;html=1;boundedLbl=1;container=0;" vertex="1" parent="1">
          <mxGeometry x="-382" y="1750" width="60" height="30" as="geometry" />
        </mxCell>
        <mxCell id="r-mGTHfdgJ765PxHvoRZ-281" style="edgeStyle=orthogonalEdgeStyle;rounded=0;orthogonalLoop=1;jettySize=auto;html=1;entryX=0.508;entryY=-0.341;entryDx=0;entryDy=0;entryPerimeter=0;" edge="1" parent="1" source="r-mGTHfdgJ765PxHvoRZ-279" target="r-mGTHfdgJ765PxHvoRZ-235">
          <mxGeometry relative="1" as="geometry" />
        </mxCell>
        <mxCell id="r-mGTHfdgJ765PxHvoRZ-283" value="" style="shape=image;verticalLabelPosition=bottom;labelBackgroundColor=default;verticalAlign=top;aspect=fixed;imageAspect=0;image=https://static.vecteezy.com/system/resources/previews/019/899/948/original/java-free-download-free-png.png;" vertex="1" parent="1">
          <mxGeometry x="-505.6" y="1972.5" width="60" height="60" as="geometry" />
        </mxCell>
        <mxCell id="r-mGTHfdgJ765PxHvoRZ-284" value="" style="shape=image;verticalLabelPosition=bottom;labelBackgroundColor=default;verticalAlign=top;aspect=fixed;imageAspect=0;image=https://pbs.twimg.com/profile_images/1235868806079057921/fTL08u_H_400x400.png;" vertex="1" parent="1">
          <mxGeometry x="-453.1" y="1982.5" width="40" height="40" as="geometry" />
        </mxCell>
        <mxCell id="r-mGTHfdgJ765PxHvoRZ-285" value="" style="shape=image;verticalLabelPosition=bottom;labelBackgroundColor=default;verticalAlign=top;aspect=fixed;imageAspect=0;image=https://www.liveagent.com/app/uploads/2020/11/MySQL-Logo.png;" vertex="1" parent="1">
          <mxGeometry x="-413.1" y="1990" width="37.5" height="25" as="geometry" />
        </mxCell>
        <mxCell id="r-mGTHfdgJ765PxHvoRZ-292" value="Backend" style="text;html=1;strokeColor=none;fillColor=none;align=center;verticalAlign=middle;whiteSpace=wrap;rounded=0;fontStyle=5;fontColor=#050505;container=0;rotation=-90;" vertex="1" parent="1">
          <mxGeometry x="-566" y="1740" width="139" height="30" as="geometry" />
        </mxCell>
        <mxCell id="r-mGTHfdgJ765PxHvoRZ-302" style="edgeStyle=orthogonalEdgeStyle;rounded=0;orthogonalLoop=1;jettySize=auto;html=1;exitX=0;exitY=0.5;exitDx=0;exitDy=0;exitPerimeter=0;fillColor=#f8cecc;strokeColor=#b85450;" edge="1" parent="1" source="r-mGTHfdgJ765PxHvoRZ-296" target="r-mGTHfdgJ765PxHvoRZ-73">
          <mxGeometry relative="1" as="geometry" />
        </mxCell>
        <mxCell id="r-mGTHfdgJ765PxHvoRZ-296" value="Forward Proxy&lt;br&gt;90.156.20.1" style="outlineConnect=0;dashed=0;verticalLabelPosition=middle;verticalAlign=middle;align=left;html=1;shape=mxgraph.aws3.traditional_server;fillColor=#7D7C7C;gradientColor=none;labelPosition=right;" vertex="1" parent="1">
          <mxGeometry x="-747" y="1575" width="50" height="68.5" as="geometry" />
        </mxCell>
        <mxCell id="r-mGTHfdgJ765PxHvoRZ-301" style="edgeStyle=orthogonalEdgeStyle;rounded=0;orthogonalLoop=1;jettySize=auto;html=1;entryX=0.5;entryY=1;entryDx=0;entryDy=0;entryPerimeter=0;" edge="1" parent="1" source="r-mGTHfdgJ765PxHvoRZ-291" target="r-mGTHfdgJ765PxHvoRZ-296">
          <mxGeometry relative="1" as="geometry" />
        </mxCell>
        <mxCell id="r-mGTHfdgJ765PxHvoRZ-304" value="TekPos" style="text;html=1;strokeColor=none;fillColor=none;align=center;verticalAlign=middle;whiteSpace=wrap;rounded=0;fontSize=29;rotation=-90;fontStyle=5" vertex="1" parent="1">
          <mxGeometry x="-820" y="1390" width="60" height="30" as="geometry" />
        </mxCell>
        <mxCell id="r-mGTHfdgJ765PxHvoRZ-307" style="edgeStyle=orthogonalEdgeStyle;rounded=0;orthogonalLoop=1;jettySize=auto;html=1;exitX=0.5;exitY=1;exitDx=0;exitDy=0;exitPerimeter=0;entryX=0.482;entryY=0.001;entryDx=0;entryDy=0;entryPerimeter=0;" edge="1" parent="1" source="r-mGTHfdgJ765PxHvoRZ-248" target="r-mGTHfdgJ765PxHvoRZ-291">
          <mxGeometry relative="1" as="geometry" />
        </mxCell>
      </root>
    </mxGraphModel>
  </diagram>
</mxfile>
